<?xml version="1.0" standalone="no"?>
<!DOCTYPE svg PUBLIC "-//W3C//DTD SVG 20010904//EN"
 "http://www.w3.org/TR/2001/REC-SVG-20010904/DTD/svg10.dtd">
<svg version="1.0" xmlns="http://www.w3.org/2000/svg"
 width="1232.000000pt" height="1232.000000pt" viewBox="0 0 1232.000000 1232.000000"
 preserveAspectRatio="xMidYMid meet">
<metadata>
Created by potrace 1.11, written by Peter Selinger 2001-2013
</metadata>
<g transform="translate(0.000000,1232.000000) scale(0.100000,-0.100000)"
fill="#000000" stroke="none">
<path d="M750 12060 c-83 -15 -147 -75 -218 -206 -40 -73 -96 -221 -107 -283
-2 -14 -7 -37 -10 -51 -48 -239 -50 -626 -4 -747 5 -13 6 -23 4 -23 -7 0 48
-145 81 -215 48 -101 142 -264 227 -390 79 -120 146 -216 157 -225 3 -3 14
-18 25 -34 11 -16 29 -41 40 -57 19 -27 177 -227 208 -265 9 -10 55 -66 103
-124 84 -101 158 -188 235 -275 19 -22 89 -105 155 -185 147 -179 136 -166
232 -281 87 -104 125 -169 124 -210 -1 -36 -37 -106 -141 -274 -266 -429 -454
-799 -647 -1276 -181 -449 -335 -964 -369 -1234 -3 -27 -8 -61 -10 -75 -2 -14
-6 -63 -10 -110 -4 -47 -9 -101 -11 -120 -5 -45 -5 -486 0 -525 2 -16 7 -61
11 -100 18 -190 77 -401 166 -593 16 -35 29 -69 29 -75 0 -7 6 -21 14 -32 7
-11 28 -54 46 -95 18 -41 108 -226 200 -410 92 -184 184 -373 205 -420 21 -47
46 -104 56 -127 102 -228 178 -509 180 -667 3 -232 -93 -387 -301 -488 -90
-44 -196 -82 -263 -94 -17 -2 -33 -6 -36 -8 -3 -2 -31 -7 -61 -11 -30 -3 -62
-8 -70 -10 -8 -2 -44 -7 -80 -11 -36 -3 -78 -8 -95 -9 -16 -2 -70 -6 -120 -10
-49 -3 -109 -8 -132 -10 -95 -8 -143 -40 -168 -111 -29 -86 21 -178 111 -203
19 -5 318 -8 711 -6 910 5 1004 10 1253 76 516 137 756 422 752 894 0 84 -6
153 -16 200 -17 79 -29 122 -52 186 -86 240 -270 546 -489 818 -55 68 -111
139 -125 157 -14 17 -79 99 -146 181 -256 315 -449 631 -508 834 -45 158 -51
223 -50 574 0 259 7 467 19 595 2 19 6 67 9 105 4 39 9 81 11 95 2 14 7 57 10
95 3 39 8 77 10 85 2 8 6 38 10 65 6 54 10 80 25 165 5 30 12 73 16 95 9 60
64 326 74 360 5 17 11 43 14 58 14 84 117 433 188 637 90 259 163 389 211 375
29 -8 135 -118 288 -296 26 -30 57 -66 70 -80 13 -14 35 -39 49 -55 208 -243
286 -332 299 -344 9 -8 23 -24 31 -36 8 -12 42 -52 76 -90 66 -75 170 -194
304 -349 47 -54 90 -103 95 -109 9 -10 367 -423 425 -490 14 -16 32 -37 40
-46 8 -8 40 -45 70 -80 30 -36 69 -81 86 -100 34 -38 359 -413 538 -619 174
-202 208 -242 260 -300 27 -31 61 -70 75 -86 108 -125 217 -252 226 -261 5 -6
33 -37 60 -70 28 -32 57 -65 65 -74 8 -9 85 -97 170 -195 85 -99 186 -216 225
-260 38 -45 95 -110 126 -145 119 -138 282 -326 308 -355 14 -16 69 -79 121
-140 52 -60 97 -112 100 -115 5 -4 146 -168 220 -254 14 -16 32 -37 40 -45 8
-9 38 -43 65 -76 28 -32 67 -77 89 -100 50 -52 184 -256 273 -415 164 -295
254 -549 288 -810 7 -54 16 -97 31 -147 19 -68 52 -88 134 -80 113 10 170 61
251 226 47 96 104 264 112 331 4 25 8 54 11 66 9 43 19 204 20 328 3 243 -15
337 -101 536 -89 206 -151 309 -371 610 -115 158 -242 323 -262 340 -3 3 -116
136 -250 295 -135 160 -255 301 -266 315 -12 14 -62 72 -111 130 -48 58 -98
116 -110 130 -136 158 -152 180 -163 233 -9 37 -11 112 -7 238 5 161 11 234
31 354 5 34 22 157 31 225 3 25 8 52 10 60 2 8 6 38 10 65 3 28 10 75 15 105
5 30 13 75 16 100 3 25 8 54 9 65 2 11 6 38 10 60 3 22 8 51 10 65 3 14 7 43
11 65 3 22 7 51 9 65 3 14 7 43 10 65 3 22 8 51 10 65 3 14 7 39 9 55 9 57 36
230 42 260 2 17 29 185 60 375 65 412 59 373 79 490 9 52 18 111 21 130 3 19
7 46 9 60 3 14 7 39 9 55 9 62 47 301 52 330 3 17 7 43 9 58 7 46 15 102 19
123 2 12 7 45 11 75 4 30 10 72 15 94 5 22 11 59 15 83 3 24 15 63 25 87 17
39 23 45 50 45 24 0 42 -12 85 -57 30 -31 55 -60 55 -64 0 -4 6 -14 14 -22 8
-8 34 -45 58 -83 24 -38 49 -78 56 -89 12 -20 19 -33 85 -175 52 -112 95 -255
119 -398 24 -146 47 -202 94 -239 41 -31 86 -32 141 -4 40 20 133 105 133 121
0 5 6 15 14 23 36 35 122 252 140 352 22 124 27 158 33 220 9 94 9 330 -1 435
-14 157 -60 314 -129 440 -37 68 -107 177 -135 210 -11 14 -47 57 -78 95 -32
39 -114 124 -182 190 -238 228 -501 496 -545 553 -24 31 -74 102 -111 157 -37
55 -72 108 -79 118 -30 43 -140 218 -175 277 -22 36 -89 146 -149 245 -236
387 -357 610 -393 727 -25 83 -76 139 -143 157 -57 16 -83 10 -139 -32 -120
-92 -211 -260 -252 -467 -35 -180 -49 -467 -31 -651 20 -198 118 -428 278
-650 98 -137 144 -193 309 -370 82 -90 126 -137 242 -259 156 -166 183 -212
180 -306 -3 -97 -13 -196 -29 -289 -8 -44 -16 -100 -20 -125 -3 -25 -8 -56
-10 -70 -3 -14 -7 -38 -9 -55 -3 -16 -17 -104 -31 -195 -15 -91 -29 -177 -31
-192 -8 -56 -13 -86 -34 -213 -12 -71 -23 -141 -25 -155 -13 -94 -52 -343 -75
-480 -18 -111 -24 -148 -35 -227 -3 -21 -10 -60 -15 -88 -5 -27 -12 -70 -15
-95 -3 -25 -10 -70 -15 -100 -5 -30 -12 -73 -15 -95 -4 -22 -8 -47 -10 -55 -2
-8 -7 -35 -10 -60 -3 -25 -8 -56 -10 -70 -10 -64 -25 -159 -30 -195 -4 -22 -8
-51 -11 -65 -8 -48 -66 -425 -71 -460 -2 -19 -15 -107 -29 -195 -37 -240 -56
-295 -102 -281 -20 7 -128 116 -202 205 -25 30 -49 59 -55 65 -5 6 -37 43 -70
81 -33 39 -62 72 -65 75 -3 3 -28 32 -55 65 -28 33 -55 65 -61 70 -6 6 -71 80
-144 165 -73 85 -136 157 -139 160 -3 3 -46 52 -96 110 -49 58 -92 107 -95
110 -3 3 -48 55 -100 115 -52 61 -109 126 -126 145 -32 36 -220 252 -303 349
-25 29 -51 59 -56 65 -21 24 -687 790 -809 930 -28 33 -56 64 -61 70 -6 6
-143 164 -304 351 -162 187 -302 347 -310 356 -9 9 -34 38 -56 64 -22 27 -45
53 -50 59 -6 6 -71 81 -145 166 -74 85 -139 160 -145 166 -5 6 -33 37 -61 70
-127 147 -540 623 -568 654 -17 19 -56 64 -86 100 -30 36 -57 67 -60 70 -28
27 -160 184 -207 246 -292 386 -469 762 -518 1101 -3 21 -8 43 -10 50 -2 6 -7
37 -11 69 -18 160 -70 215 -184 194z"/>
<path d="M9959 4156 c-2 -2 -32 -7 -66 -10 -80 -8 -212 -46 -300 -87 -234
-107 -445 -320 -579 -586 -66 -130 -125 -305 -149 -442 -3 -19 -7 -37 -9 -40
-2 -3 -7 -28 -10 -56 -4 -27 -9 -63 -12 -80 -34 -198 -39 -730 -9 -1000 45
-416 165 -728 373 -973 133 -157 263 -253 452 -335 210 -90 550 -98 790 -17
347 116 636 431 773 841 23 68 64 228 71 274 3 22 8 51 11 65 3 14 8 48 11 75
3 28 8 61 10 75 24 167 24 693 0 905 -8 72 -19 152 -22 170 -3 11 -7 35 -10
54 -14 81 -68 273 -100 354 -93 231 -240 437 -409 572 -27 22 -51 43 -53 48
-2 4 -8 7 -13 7 -5 0 -33 16 -63 35 -88 56 -224 110 -331 130 -22 5 -47 10
-55 12 -19 5 -296 13 -301 9z m243 -130 c62 -9 189 -55 250 -92 73 -45 168
-138 217 -214 84 -130 150 -389 176 -690 3 -36 8 -83 10 -105 30 -283 22
-1047 -15 -1365 -25 -218 -50 -344 -96 -479 -96 -288 -279 -443 -564 -479
-349 -43 -647 123 -770 431 -53 133 -96 348 -116 577 -3 41 -8 91 -10 110 -22
221 -22 931 1 1200 9 103 17 187 20 210 2 14 6 43 9 65 11 80 18 121 33 185 8
36 16 70 17 75 1 6 10 36 20 68 108 363 421 555 818 503z"/>
</g>
</svg>
